<?xml version="1.0" encoding="utf-8"?>
<!-- Generator: Adobe Illustrator 24.1.1, SVG Export Plug-In . SVG Version: 6.00 Build 0)  -->
<svg version="1.1" id="レイヤー_1" xmlns="http://www.w3.org/2000/svg" xmlns:xlink="http://www.w3.org/1999/xlink" x="0px"
	 y="0px" viewBox="0 0 841.9 595.3" style="enable-background:new 0 0 841.9 595.3;" xml:space="preserve">
<style type="text/css">
	.st0{fill-rule:evenodd;clip-rule:evenodd;}
	.st1{fill-opacity:0;stroke:#000000;stroke-width:0.1417;stroke-linecap:round;stroke-linejoin:round;stroke-miterlimit:10;}
</style>
<desc>Picture generated by PCBNEW</desc>
<g transform="translate(0 0) scale(1 1)">
</g>
<path class="st0" d="M238.7,371l0.3,0.1l0.6,0.2l0.5,0.4l0.5,0.5l0.4,0.5l0.2,0.6l0.1,0.6v0.6l-0.1,0.6l-0.2,0.6l-0.4,0.5l-0.5,0.5
	l-0.5,0.4l-0.6,0.2l-0.3,0.1l-0.3,0.1h-0.6l-0.3-0.1l-0.3-0.1l-0.6-0.2l-0.5-0.4l-0.5-0.5l-0.4-0.5l-0.2-0.6l-0.1-0.6v-0.6l0.1-0.6
	l0.2-0.6l0.4-0.5l0.5-0.5l0.5-0.4l0.6-0.2l0.3-0.1l0.3-0.1h0.6L238.7,371z"/>
<path class="st0" d="M136.7,371l0.3,0.1l0.6,0.2l0.5,0.4l0.5,0.5l0.4,0.5l0.2,0.6l0.1,0.6v0.6l-0.1,0.6l-0.2,0.6l-0.4,0.5l-0.5,0.5
	l-0.5,0.4l-0.6,0.2l-0.3,0.1l-0.3,0.1h-0.6l-0.3-0.1l-0.3-0.1l-0.6-0.2l-0.5-0.4l-0.5-0.5l-0.4-0.5l-0.2-0.6l-0.1-0.6v-0.6l0.1-0.6
	l0.2-0.6l0.4-0.5l0.5-0.5l0.5-0.4l0.6-0.2l0.3-0.1l0.3-0.1h0.6L136.7,371z"/>
<path class="st0" d="M340.8,371l0.3,0.1l0.6,0.2l0.5,0.4l0.5,0.5l0.4,0.5l0.2,0.6l0.1,0.6v0.6l-0.1,0.6l-0.2,0.6l-0.4,0.5l-0.5,0.5
	l-0.5,0.4l-0.6,0.2l-0.3,0.1l-0.3,0.1h-0.6l-0.3-0.1l-0.3-0.1l-0.6-0.2l-0.5-0.4l-0.5-0.5l-0.4-0.5l-0.2-0.6l-0.1-0.6v-0.6l0.1-0.6
	l0.2-0.6l0.4-0.5l0.5-0.5l0.5-0.4l0.6-0.2l0.3-0.1l0.3-0.1h0.6L340.8,371z"/>
<path class="st0" d="M493.9,371l0.3,0.1l0.6,0.2l0.5,0.4l0.5,0.5l0.4,0.5l0.2,0.6l0.1,0.6v0.6l-0.1,0.6l-0.2,0.6l-0.4,0.5l-0.5,0.5
	l-0.5,0.4l-0.6,0.2l-0.3,0.1l-0.3,0.1h-0.6l-0.3-0.1l-0.3-0.1l-0.6-0.2l-0.5-0.4l-0.5-0.5l-0.4-0.5l-0.2-0.6l-0.1-0.6v-0.6l0.1-0.6
	l0.2-0.6l0.4-0.5l0.5-0.5l0.5-0.4l0.6-0.2l0.3-0.1l0.3-0.1h0.6L493.9,371z"/>
<path class="st0" d="M595.9,371l0.3,0.1l0.6,0.2l0.5,0.4l0.5,0.5l0.4,0.5l0.2,0.6l0.1,0.6v0.6l-0.1,0.6l-0.2,0.6l-0.4,0.5l-0.5,0.5
	l-0.5,0.4l-0.6,0.2l-0.3,0.1l-0.3,0.1H595l-0.3-0.1l-0.3-0.1l-0.6-0.2l-0.5-0.4l-0.5-0.5l-0.4-0.5l-0.2-0.6l-0.1-0.6v-0.6l0.1-0.6
	l0.2-0.6l0.4-0.5l0.5-0.5l0.5-0.4l0.6-0.2l0.3-0.1l0.3-0.1h0.6L595.9,371z"/>
<path class="st0" d="M698,371l0.3,0.1l0.6,0.2l0.5,0.4l0.5,0.5l0.4,0.5l0.2,0.6l0.1,0.6v0.6l-0.1,0.6l-0.2,0.6l-0.4,0.5l-0.5,0.5
	l-0.5,0.4l-0.6,0.2l-0.3,0.1l-0.3,0.1H697l-0.3-0.1l-0.3-0.1l-0.6-0.2l-0.5-0.4l-0.5-0.5l-0.4-0.5l-0.2-0.6l-0.1-0.6v-0.6l0.1-0.6
	l0.2-0.6l0.4-0.5l0.5-0.5l0.5-0.4l0.6-0.2l0.3-0.1l0.3-0.1h0.6L698,371z"/>
<path class="st0" d="M595.9,319.9l0.3,0.1l0.6,0.2l0.5,0.4l0.5,0.5l0.4,0.5l0.2,0.6l0.1,0.6v0.6l-0.1,0.6l-0.2,0.6l-0.4,0.5
	l-0.5,0.5l-0.5,0.4l-0.6,0.2l-0.3,0.1l-0.3,0.1H595l-0.3-0.1l-0.3-0.1l-0.6-0.2l-0.5-0.4l-0.5-0.5l-0.4-0.5l-0.2-0.6l-0.1-0.6v-0.6
	l0.1-0.6l0.2-0.6l0.4-0.5l0.5-0.5l0.5-0.4l0.6-0.2l0.3-0.1l0.3-0.1h0.6L595.9,319.9z"/>
<path class="st0" d="M391.8,319.9l0.3,0.1l0.6,0.2l0.5,0.4l0.5,0.5l0.4,0.5l0.2,0.6l0.1,0.6v0.6l-0.1,0.6l-0.2,0.6l-0.4,0.5
	l-0.5,0.5l-0.5,0.4l-0.6,0.2l-0.3,0.1l-0.3,0.1h-0.6l-0.3-0.1l-0.3-0.1l-0.6-0.2l-0.5-0.4l-0.5-0.5l-0.4-0.5l-0.2-0.6l-0.1-0.6v-0.6
	l0.1-0.6l0.2-0.6l0.4-0.5l0.5-0.5l0.5-0.4l0.6-0.2l0.3-0.1l0.3-0.1h0.6L391.8,319.9z"/>
<path class="st0" d="M238.7,319.9l0.3,0.1l0.6,0.2l0.5,0.4l0.5,0.5l0.4,0.5l0.2,0.6l0.1,0.6v0.6l-0.1,0.6l-0.2,0.6l-0.4,0.5
	l-0.5,0.5l-0.5,0.4l-0.6,0.2l-0.3,0.1l-0.3,0.1h-0.6l-0.3-0.1l-0.3-0.1l-0.6-0.2l-0.5-0.4l-0.5-0.5l-0.4-0.5l-0.2-0.6l-0.1-0.6v-0.6
	l0.1-0.6l0.2-0.6l0.4-0.5l0.5-0.5l0.5-0.4l0.6-0.2l0.3-0.1l0.3-0.1h0.6L238.7,319.9z"/>
<path class="st0" d="M442.8,319.9l0.3,0.1l0.6,0.2l0.5,0.4l0.5,0.5l0.4,0.5l0.2,0.6l0.1,0.6v0.6l-0.1,0.6l-0.2,0.6l-0.4,0.5
	l-0.5,0.5l-0.5,0.4l-0.6,0.2l-0.3,0.1l-0.3,0.1h-0.6l-0.3-0.1l-0.3-0.1l-0.6-0.2l-0.5-0.4l-0.5-0.5l-0.4-0.5l-0.2-0.6l-0.1-0.6v-0.6
	l0.1-0.6l0.2-0.6l0.4-0.5l0.5-0.5l0.5-0.4l0.6-0.2l0.3-0.1l0.3-0.1h0.6L442.8,319.9z"/>
<path class="st0" d="M238.7,217.9l0.3,0.1l0.6,0.2l0.5,0.4l0.5,0.5l0.4,0.5l0.2,0.6l0.1,0.6v0.6l-0.1,0.6l-0.2,0.6l-0.4,0.5
	l-0.5,0.5l-0.5,0.4l-0.6,0.2l-0.3,0.1l-0.3,0.1h-0.6l-0.3-0.1l-0.3-0.1l-0.6-0.2l-0.5-0.4l-0.5-0.5l-0.4-0.5l-0.2-0.6l-0.1-0.6v-0.6
	l0.1-0.6l0.2-0.6l0.4-0.5l0.5-0.5l0.5-0.4l0.6-0.2l0.3-0.1l0.3-0.1h0.6L238.7,217.9z"/>
<path class="st0" d="M595.9,217.9l0.3,0.1l0.6,0.2l0.5,0.4l0.5,0.5l0.4,0.5l0.2,0.6l0.1,0.6v0.6l-0.1,0.6l-0.2,0.6l-0.4,0.5
	l-0.5,0.5l-0.5,0.4l-0.6,0.2l-0.3,0.1l-0.3,0.1H595l-0.3-0.1l-0.3-0.1l-0.6-0.2l-0.5-0.4l-0.5-0.5l-0.4-0.5l-0.2-0.6l-0.1-0.6v-0.6
	l0.1-0.6l0.2-0.6l0.4-0.5l0.5-0.5l0.5-0.4l0.6-0.2l0.3-0.1l0.3-0.1h0.6L595.9,217.9z"/>
<path class="st0" d="M698,217.9l0.3,0.1l0.6,0.2l0.5,0.4l0.5,0.5l0.4,0.5l0.2,0.6l0.1,0.6v0.6l-0.1,0.6l-0.2,0.6l-0.4,0.5l-0.5,0.5
	l-0.5,0.4l-0.6,0.2l-0.3,0.1l-0.3,0.1H697l-0.3-0.1l-0.3-0.1l-0.6-0.2l-0.5-0.4l-0.5-0.5l-0.4-0.5l-0.2-0.6l-0.1-0.6v-0.6l0.1-0.6
	l0.2-0.6l0.4-0.5l0.5-0.5l0.5-0.4l0.6-0.2l0.3-0.1l0.3-0.1h0.6L698,217.9z"/>
<path class="st0" d="M493.9,217.9l0.3,0.1l0.6,0.2l0.5,0.4l0.5,0.5l0.4,0.5l0.2,0.6l0.1,0.6v0.6l-0.1,0.6l-0.2,0.6l-0.4,0.5
	l-0.5,0.5l-0.5,0.4l-0.6,0.2l-0.3,0.1l-0.3,0.1h-0.6l-0.3-0.1l-0.3-0.1l-0.6-0.2l-0.5-0.4l-0.5-0.5l-0.4-0.5l-0.2-0.6l-0.1-0.6v-0.6
	l0.1-0.6l0.2-0.6l0.4-0.5l0.5-0.5l0.5-0.4l0.6-0.2l0.3-0.1l0.3-0.1h0.6L493.9,217.9z"/>
<path class="st0" d="M340.8,217.9l0.3,0.1l0.6,0.2l0.5,0.4l0.5,0.5l0.4,0.5l0.2,0.6l0.1,0.6v0.6l-0.1,0.6l-0.2,0.6l-0.4,0.5
	l-0.5,0.5l-0.5,0.4l-0.6,0.2l-0.3,0.1l-0.3,0.1h-0.6l-0.3-0.1l-0.3-0.1l-0.6-0.2l-0.5-0.4l-0.5-0.5l-0.4-0.5l-0.2-0.6l-0.1-0.6v-0.6
	l0.1-0.6l0.2-0.6l0.4-0.5l0.5-0.5l0.5-0.4l0.6-0.2l0.3-0.1l0.3-0.1h0.6L340.8,217.9z"/>
<path class="st0" d="M136.7,217.9l0.3,0.1l0.6,0.2l0.5,0.4l0.5,0.5l0.4,0.5l0.2,0.6l0.1,0.6v0.6l-0.1,0.6l-0.2,0.6l-0.4,0.5
	l-0.5,0.5l-0.5,0.4l-0.6,0.2l-0.3,0.1l-0.3,0.1h-0.6l-0.3-0.1l-0.3-0.1l-0.6-0.2l-0.5-0.4l-0.5-0.5l-0.4-0.5l-0.2-0.6l-0.1-0.6v-0.6
	l0.1-0.6l0.2-0.6l0.4-0.5l0.5-0.5l0.5-0.4l0.6-0.2l0.3-0.1l0.3-0.1h0.6L136.7,217.9z"/>
<path class="st0" d="M740.5,158.4l0.3,0.1l0.6,0.2l0.5,0.4l0.5,0.5l0.4,0.5l0.2,0.4l0.1,0.2l0.1,0.6v0.6l-0.1,0.6l-0.2,0.5l0,0.1
	l-0.4,0.5l-0.5,0.5l-0.5,0.4l-0.6,0.2l-0.3,0.1l-0.3,0.1h-0.6l-0.3-0.1l-0.3-0.1l-0.6-0.2l-0.5-0.4l-0.5-0.5l-0.4-0.5l0-0.1
	l-0.2-0.5l-0.1-0.6v-0.6l0.1-0.6l0.1-0.2l0.2-0.4l0.4-0.5l0.5-0.5l0.5-0.4l0.6-0.2l0.3-0.1l0.3-0.1h0.6L740.5,158.4z"/>
<path class="st0" d="M417.3,158.4l0.3,0.1l0.6,0.2l0.5,0.4l0.5,0.5l0.4,0.5l0.2,0.4l0.1,0.2l0.1,0.6v0.6l-0.1,0.6l-0.2,0.5l0,0.1
	l-0.4,0.5l-0.5,0.5l-0.5,0.4l-0.6,0.2l-0.3,0.1l-0.3,0.1h-0.6l-0.3-0.1l-0.3-0.1l-0.6-0.2l-0.5-0.4l-0.5-0.5l-0.4-0.5l0-0.1
	l-0.2-0.5l-0.1-0.6v-0.6l0.1-0.6l0.1-0.2l0.2-0.4l0.4-0.5l0.5-0.5l0.5-0.4l0.6-0.2l0.3-0.1l0.3-0.1h0.6L417.3,158.4z"/>
<path class="st0" d="M94.2,158.4l0.3,0.1l0.6,0.2l0.5,0.4l0.5,0.5l0.4,0.5l0.2,0.4l0.1,0.2l0.1,0.6v0.6l-0.1,0.6l-0.2,0.5l0,0.1
	l-0.4,0.5l-0.5,0.5l-0.5,0.4l-0.6,0.2l-0.3,0.1l-0.3,0.1h-0.6l-0.3-0.1l-0.3-0.1l-0.6-0.2l-0.5-0.4l-0.5-0.5l-0.4-0.5l0-0.1
	l-0.2-0.5l-0.1-0.6v-0.6l0.1-0.6l0.1-0.2l0.2-0.4l0.4-0.5l0.5-0.5l0.5-0.4l0.6-0.2l0.3-0.1l0.3-0.1h0.6L94.2,158.4z"/>
<path class="st0" d="M340.8,90.3l0.3,0.1l0.6,0.2l0.5,0.4l0.5,0.5L343,92l0.2,0.6l0.1,0.6v0.6l-0.1,0.6l-0.2,0.6l-0.4,0.5l-0.5,0.5
	l-0.5,0.4l-0.6,0.2l-0.3,0.1l-0.3,0.1h-0.6l-0.3-0.1l-0.3-0.1l-0.6-0.2l-0.5-0.4l-0.5-0.5l-0.4-0.5l-0.2-0.6l-0.1-0.6v-0.6l0.1-0.6
	l0.2-0.6l0.4-0.5l0.5-0.5l0.5-0.4l0.6-0.2l0.3-0.1l0.3-0.1h0.6L340.8,90.3z"/>
<path class="st0" d="M94.2,90.3l0.3,0.1l0.6,0.2l0.5,0.4l0.5,0.5l0.4,0.5l0.2,0.6l0.1,0.6v0.6l-0.1,0.6l-0.2,0.6l-0.4,0.5l-0.5,0.5
	l-0.5,0.4l-0.6,0.2l-0.3,0.1l-0.3,0.1h-0.6l-0.3-0.1l-0.3-0.1L92,96.4l-0.5-0.4L91,95.6l-0.4-0.5l-0.2-0.6l-0.1-0.6v-0.6l0.1-0.6
	l0.2-0.6l0.4-0.5l0.5-0.5l0.5-0.4l0.6-0.2l0.3-0.1l0.3-0.1h0.6L94.2,90.3z"/>
<path class="st0" d="M740.5,90.3l0.3,0.1l0.6,0.2l0.5,0.4l0.5,0.5l0.4,0.5l0.3,0.6l0.1,0.6v0.6l-0.1,0.6l-0.3,0.6l-0.4,0.5l-0.5,0.5
	l-0.5,0.4l-0.6,0.2l-0.3,0.1l-0.3,0.1h-0.6l-0.3-0.1l-0.3-0.1l-0.6-0.2l-0.5-0.4l-0.5-0.5l-0.4-0.5l-0.2-0.6l-0.1-0.6v-0.6l0.1-0.6
	l0.2-0.6l0.4-0.5l0.5-0.5l0.5-0.4l0.6-0.2l0.3-0.1l0.3-0.1h0.6L740.5,90.3z"/>
<path class="st0" d="M493.9,90.3l0.3,0.1l0.6,0.2l0.5,0.4l0.5,0.5l0.4,0.5l0.2,0.6l0.1,0.6v0.6l-0.1,0.6l-0.2,0.6l-0.4,0.5l-0.5,0.5
	l-0.5,0.4l-0.6,0.2l-0.3,0.1l-0.3,0.1h-0.6l-0.3-0.1l-0.3-0.1l-0.6-0.2l-0.5-0.4l-0.5-0.5l-0.4-0.5l-0.2-0.6l-0.1-0.6v-0.6l0.1-0.6
	l0.2-0.6l0.4-0.5l0.5-0.5l0.5-0.4l0.6-0.2l0.3-0.1l0.3-0.1h0.6L493.9,90.3z"/>
<g>
	<path class="st1" d="M493.2,85h246.6"/>
	<path class="st1" d="M357.2,102h119.1"/>
	<path class="st1" d="M476.2,102c4.7,0,8.5-3.8,8.5-8.5"/>
	<path class="st1" d="M493.2,85c-4.7,0-8.5,3.8-8.5,8.5v0"/>
	<path class="st1" d="M348.7,93.5c0,4.7,3.8,8.5,8.5,8.5c0,0,0,0,0,0"/>
	<path class="st1" d="M348.7,93.5c0-4.7-3.8-8.5-8.5-8.5"/>
	<path class="st1" d="M93.5,85h246.6"/>
	<path class="st1" d="M93.5,85c-4.7,0-8.5,3.8-8.5,8.5"/>
	<path class="st1" d="M85,416.7V93.5"/>
	<path class="st1" d="M85,416.7c0,4.7,3.8,8.5,8.5,8.5h0"/>
	<path class="st1" d="M739.8,425.2H93.5"/>
	<path class="st1" d="M739.8,425.2c4.7,0,8.5-3.8,8.5-8.5"/>
	<path class="st1" d="M748.3,93.5v323.2"/>
	<path class="st1" d="M748.3,93.5c0-4.7-3.8-8.5-8.5-8.5"/>
</g>
</svg>
