M48
; DRILL file {KiCad (5.1.5)-3} date 2020/03/10 10:44:18
; FORMAT={-:-/ absolute / metric / decimal}
; #@! TF.CreationDate,2020-03-10T10:44:18+09:00
; #@! TF.GenerationSoftware,Kicad,Pcbnew,(5.1.5)-3
FMAT,2
METRIC
T1C0.400
T2C0.600
T3C0.700
T4C0.800
T5C0.900
T6C0.970
T7C1.000
T8C1.040
T9C1.200
T10C1.270
T11C2.370
T12C3.200
T13C0.600
T14C0.991
T15C1.000
T16C1.600
T17C2.200
T18C3.300
%
G90
G05
T1
X57.444Y-33.91
X79.84Y-54.117
X87.25Y-61.5
X89.25Y-31.75
X89.75Y-61.5
X89.75Y-64.0
X90.0Y-53.25
X90.75Y-31.75
X92.25Y-31.75
X92.25Y-61.5
X92.25Y-64.0
X93.75Y-31.75
X94.0Y-50.0
X94.75Y-61.5
X94.75Y-64.0
X96.436Y-34.937
X104.862Y-40.119
X108.25Y-61.5
X108.25Y-64.25
X111.0Y-61.5
X111.0Y-64.25
X113.75Y-61.5
X113.75Y-64.25
X118.0Y-36.0
X119.5Y-36.0
X121.0Y-36.0
X121.652Y-42.921
X122.5Y-36.0
X123.25Y-55.25
X123.302Y-63.255
X125.0Y-55.25
X168.25Y-38.0
X169.0Y-37.0
X170.464Y-50.039
X171.711Y-67.592
X177.25Y-31.75
X177.25Y-33.75
X177.509Y-51.726
X178.75Y-65.5
X179.25Y-31.75
X179.511Y-63.979
X186.59Y-34.641
X186.75Y-65.5
X189.768Y-36.439
X190.029Y-47.179
X193.25Y-63.25
X194.516Y-37.566
X198.75Y-57.75
X199.992Y-39.734
X200.75Y-57.75
X204.285Y-43.05
X204.401Y-49.157
X205.78Y-44.012
X207.404Y-49.859
X213.081Y-54.305
X220.761Y-59.351
X235.75Y-57.25
X236.75Y-55.75
X241.25Y-59.0
X242.25Y-60.25
X246.0Y-31.25
X247.75Y-31.25
X249.123Y-66.806
X249.5Y-31.25
X251.25Y-31.25
X251.25Y-33.0
X253.0Y-31.25
X253.0Y-33.0
X254.75Y-31.25
X254.75Y-33.0
X254.75Y-35.0
X255.0Y-43.0
X256.5Y-31.25
X256.5Y-33.0
X256.5Y-35.0
X258.25Y-31.25
X258.25Y-33.0
X258.25Y-35.0
T3
X120.0Y-44.5
X127.62Y-44.5
X120.0Y-52.0
X127.62Y-52.0
X251.0Y-96.0
X258.62Y-96.0
X249.0Y-65.0
X249.0Y-72.62
X92.38Y-52.0
X100.0Y-52.0
X120.0Y-49.5
X127.62Y-49.5
X176.612Y-38.388
X182.0Y-33.0
X116.0Y-42.0
X116.0Y-49.62
X116.0Y-32.13
X116.0Y-39.75
X120.0Y-47.0
X127.62Y-47.0
X179.612Y-38.388
X185.0Y-33.0
X92.38Y-58.0
X100.0Y-58.0
X111.5Y-42.0
X111.5Y-49.62
X109.25Y-42.0
X109.25Y-49.62
X251.0Y-78.0
X258.62Y-78.0
X104.0Y-58.0
X111.62Y-58.0
X109.25Y-32.13
X109.25Y-39.75
X120.0Y-55.0
X127.62Y-55.0
X120.0Y-58.0
X127.62Y-58.0
X104.0Y-52.0
X111.62Y-52.0
X120.0Y-39.5
X127.62Y-39.5
X251.0Y-114.0
X258.62Y-114.0
X251.0Y-132.0
X258.62Y-132.0
X113.75Y-32.13
X113.75Y-39.75
X120.0Y-42.0
X127.62Y-42.0
X261.0Y-65.0
X261.0Y-72.62
X252.25Y-66.5
X252.25Y-69.0
X252.25Y-71.5
X257.75Y-66.5
X257.75Y-69.0
X257.75Y-71.5
X113.75Y-42.0
X113.75Y-49.62
X111.5Y-32.13
X111.5Y-39.75
T4
X138.0Y-100.38
X138.0Y-108.0
X246.0Y-82.38
X246.0Y-90.0
X120.0Y-64.38
X120.0Y-72.0
X84.0Y-118.38
X84.0Y-126.0
X210.0Y-64.38
X210.0Y-72.0
X104.0Y-47.5
X106.0Y-47.5
X138.0Y-118.38
X138.0Y-126.0
X192.0Y-100.38
X192.0Y-108.0
X97.5Y-55.0
X100.0Y-55.0
X156.0Y-118.38
X156.0Y-126.0
X174.0Y-82.38
X174.0Y-90.0
X156.0Y-64.38
X156.0Y-72.0
X48.0Y-136.38
X48.0Y-144.0
X66.0Y-64.38
X66.0Y-72.0
X246.0Y-100.38
X246.0Y-108.0
X192.0Y-64.38
X192.0Y-72.0
X98.0Y-47.5
X100.0Y-47.5
X228.0Y-82.38
X228.0Y-90.0
X66.0Y-100.38
X66.0Y-108.0
X192.0Y-82.38
X192.0Y-90.0
X138.0Y-64.38
X138.0Y-72.0
X228.0Y-118.38
X228.0Y-126.0
X102.0Y-82.38
X102.0Y-90.0
X84.0Y-100.38
X84.0Y-108.0
X102.0Y-64.38
X102.0Y-72.0
X102.0Y-118.38
X102.0Y-126.0
X120.0Y-82.38
X120.0Y-90.0
X104.0Y-55.0
X106.5Y-55.0
X246.0Y-136.38
X246.0Y-144.0
X210.0Y-136.38
X210.0Y-144.0
X228.0Y-136.38
X228.0Y-144.0
X120.0Y-100.38
X120.0Y-108.0
X84.0Y-64.38
X84.0Y-72.0
X210.0Y-118.38
X210.0Y-126.0
X66.0Y-82.38
X66.0Y-90.0
X246.0Y-118.38
X246.0Y-126.0
X48.0Y-64.38
X48.0Y-72.0
X210.0Y-100.38
X210.0Y-108.0
X66.0Y-118.38
X66.0Y-126.0
X120.0Y-136.38
X120.0Y-144.0
X174.0Y-136.38
X174.0Y-144.0
X138.0Y-136.38
X138.0Y-144.0
X228.0Y-100.38
X228.0Y-108.0
X120.0Y-118.38
X120.0Y-126.0
X48.0Y-82.38
X48.0Y-90.0
X138.0Y-82.38
X138.0Y-90.0
X102.0Y-100.38
X102.0Y-108.0
X66.0Y-136.38
X66.0Y-144.0
X156.0Y-136.38
X156.0Y-144.0
X192.0Y-136.38
X192.0Y-144.0
X84.0Y-136.38
X84.0Y-144.0
X174.0Y-64.38
X174.0Y-72.0
X174.0Y-100.38
X174.0Y-108.0
X246.0Y-64.38
X246.0Y-72.0
X192.0Y-118.38
X192.0Y-126.0
X48.0Y-118.38
X48.0Y-126.0
X102.0Y-136.38
X102.0Y-144.0
X48.0Y-100.38
X48.0Y-108.0
X84.0Y-82.38
X84.0Y-90.0
X156.0Y-100.38
X156.0Y-108.0
X228.0Y-64.38
X228.0Y-72.0
X174.0Y-118.38
X174.0Y-126.0
X210.0Y-82.38
X210.0Y-90.0
X156.0Y-82.38
X156.0Y-90.0
T5
X136.0Y-56.0
X138.54Y-56.0
X155.0Y-56.0
X157.54Y-56.0
X141.92Y-45.191
X141.92Y-50.271
X143.063Y-47.731
X144.205Y-45.191
X144.205Y-50.271
X145.348Y-47.731
X146.49Y-45.191
X146.49Y-50.271
X147.633Y-47.731
X148.775Y-45.191
X148.775Y-50.271
X149.918Y-47.731
X151.06Y-45.191
X151.06Y-50.271
X152.203Y-47.731
T6
X77.7Y-41.65
X77.7Y-48.35
X80.19Y-41.65
X80.19Y-43.7
X80.19Y-46.3
X80.19Y-48.35
T7
X166.76Y-42.38
X166.76Y-57.62
X169.3Y-42.38
X169.3Y-57.62
X171.84Y-42.38
X171.84Y-57.62
X172.98Y-45.28
X174.38Y-42.38
X174.38Y-57.62
X175.52Y-45.28
X176.92Y-42.38
X176.92Y-57.62
X179.46Y-42.38
X179.46Y-57.62
X182.0Y-42.38
X182.0Y-57.62
X183.41Y-45.28
X184.54Y-42.38
X184.54Y-57.62
X185.95Y-45.28
X187.08Y-42.38
X187.08Y-57.62
X189.62Y-42.38
X189.62Y-57.62
X192.16Y-42.38
X192.16Y-57.62
X194.7Y-42.38
X194.7Y-57.62
X162.25Y-54.96
X162.25Y-57.5
X203.87Y-37.38
X203.87Y-52.62
X206.41Y-37.38
X206.41Y-52.62
X208.95Y-37.38
X208.95Y-52.628
X211.49Y-37.38
X211.49Y-52.62
X214.03Y-37.38
X214.03Y-52.62
X216.57Y-37.38
X216.57Y-52.62
X219.11Y-37.38
X219.11Y-52.62
X221.65Y-37.388
X221.65Y-52.62
X224.19Y-37.38
X224.19Y-52.62
X226.73Y-37.38
X226.73Y-52.62
X229.27Y-37.38
X229.27Y-52.62
X231.81Y-37.38
X231.81Y-52.628
X234.35Y-37.38
X234.35Y-52.62
X236.89Y-37.38
X236.89Y-52.62
X239.43Y-37.38
X239.43Y-52.62
X241.97Y-37.38
X241.97Y-52.62
X244.51Y-37.38
X244.51Y-52.62
X247.05Y-37.388
X247.05Y-52.62
X249.59Y-37.38
X249.59Y-52.628
X252.13Y-37.38
X252.13Y-52.628
X253.0Y-41.161
X253.0Y-43.701
X253.0Y-46.241
X253.0Y-48.781
X255.0Y-75.0
X257.54Y-75.0
T8
X40.04Y-32.3
X40.04Y-57.7
X42.58Y-32.3
X42.58Y-57.7
X45.12Y-32.3
X45.12Y-57.7
X47.66Y-32.3
X47.66Y-57.7
X50.2Y-32.3
X50.2Y-57.7
X52.74Y-32.3
X52.74Y-57.7
X55.28Y-32.3
X55.28Y-57.7
X57.82Y-32.3
X57.82Y-57.7
X60.36Y-32.3
X60.36Y-57.7
X62.9Y-32.3
X62.9Y-57.7
X65.44Y-32.3
X65.44Y-57.7
X67.98Y-32.3
X67.98Y-57.7
X70.52Y-32.3
X70.52Y-57.7
X73.06Y-32.3
X73.06Y-57.7
X75.6Y-32.3
X75.6Y-57.7
X78.14Y-32.3
X78.14Y-57.7
X80.68Y-32.3
X80.68Y-57.7
X83.22Y-32.3
X83.22Y-57.7
X85.76Y-32.3
X85.76Y-57.7
T9
X99.1Y-35.5
X99.75Y-43.0
X104.25Y-43.0
X104.9Y-35.5
T10
X250.0Y-108.8
X255.0Y-110.9
X34.0Y-90.8
X39.0Y-92.9
X196.0Y-72.8
X201.0Y-74.9
X232.0Y-90.8
X237.0Y-92.9
X160.0Y-72.8
X165.0Y-74.9
X88.0Y-108.8
X93.0Y-110.9
X196.0Y-126.8
X201.0Y-128.9
X70.0Y-126.8
X75.0Y-128.9
X88.0Y-144.8
X93.0Y-146.9
X250.0Y-90.8
X255.0Y-92.9
X70.0Y-144.8
X75.0Y-146.9
X70.0Y-90.8
X75.0Y-92.9
X178.0Y-108.8
X183.0Y-110.9
X214.0Y-108.8
X219.0Y-110.9
X124.0Y-126.8
X129.0Y-128.9
X124.0Y-144.8
X129.0Y-146.9
X214.0Y-144.8
X219.0Y-146.9
X250.0Y-144.8
X255.0Y-146.9
X106.0Y-144.8
X111.0Y-146.9
X106.0Y-90.8
X111.0Y-92.9
X88.0Y-90.8
X93.0Y-92.9
X196.0Y-90.8
X201.0Y-92.9
X214.0Y-72.8
X219.0Y-74.9
X106.0Y-108.8
X111.0Y-110.9
X232.0Y-108.8
X237.0Y-110.9
X142.0Y-126.8
X147.0Y-128.9
X178.0Y-144.8
X183.0Y-146.9
X142.0Y-144.8
X147.0Y-146.9
X34.0Y-108.8
X39.0Y-110.9
X34.0Y-72.8
X39.0Y-74.9
X124.0Y-72.8
X129.0Y-74.9
X142.0Y-72.8
X147.0Y-74.9
X52.0Y-72.8
X57.0Y-74.9
X124.0Y-108.8
X129.0Y-110.9
X142.0Y-108.8
X147.0Y-110.9
X52.0Y-144.8
X57.0Y-146.9
X34.0Y-144.8
X39.0Y-146.9
X196.0Y-144.8
X201.0Y-146.9
X178.0Y-90.8
X183.0Y-92.9
X178.0Y-72.8
X183.0Y-74.9
X106.0Y-72.8
X111.0Y-74.9
X124.0Y-90.8
X129.0Y-92.9
X70.0Y-72.8
X75.0Y-74.9
X52.0Y-108.8
X57.0Y-110.9
X232.0Y-126.8
X237.0Y-128.9
X196.0Y-108.8
X201.0Y-110.9
X160.0Y-126.8
X165.0Y-128.9
X160.0Y-144.8
X165.0Y-146.9
X232.0Y-144.8
X237.0Y-146.9
X232.0Y-72.8
X237.0Y-74.9
X160.0Y-90.8
X165.0Y-92.9
X214.0Y-90.8
X219.0Y-92.9
X70.0Y-108.8
X75.0Y-110.9
X160.0Y-108.8
X165.0Y-110.9
X34.0Y-126.8
X39.0Y-128.9
X178.0Y-126.8
X183.0Y-128.9
X250.0Y-126.8
X255.0Y-128.9
X88.0Y-72.8
X93.0Y-74.9
X52.0Y-90.8
X57.0Y-92.9
X142.0Y-90.8
X147.0Y-92.9
X106.0Y-126.8
X111.0Y-128.9
X88.0Y-126.8
X93.0Y-128.9
X52.0Y-126.8
X57.0Y-128.9
X214.0Y-126.8
X219.0Y-128.9
T11
X83.19Y-38.24
X83.19Y-51.76
X84.0Y-45.0
T12
X134.566Y-47.731
X159.556Y-47.731
T13
X189.11Y-35.45
X194.89Y-35.45
T14
X188.22Y-136.8
X152.22Y-136.8
X44.22Y-100.8
X44.22Y-64.8
X134.22Y-64.8
X152.22Y-64.8
X62.22Y-64.8
X134.22Y-100.8
X152.22Y-100.8
X62.22Y-136.8
X44.22Y-136.8
X206.22Y-136.8
X188.22Y-82.8
X188.22Y-64.8
X116.22Y-64.8
X134.22Y-82.8
X80.22Y-64.8
X62.22Y-100.8
X242.22Y-118.8
X206.22Y-100.8
X170.22Y-118.8
X170.22Y-136.8
X242.22Y-136.8
X242.22Y-64.8
X170.22Y-82.8
X224.22Y-82.8
X80.22Y-100.8
X170.22Y-100.8
X44.22Y-118.8
X188.22Y-118.8
X260.22Y-118.8
X98.22Y-64.8
X62.22Y-82.8
X152.22Y-82.8
X116.22Y-118.8
X98.22Y-118.8
X62.22Y-118.8
X224.22Y-118.8
X260.22Y-100.8
X44.22Y-82.8
X206.22Y-64.8
X242.22Y-82.8
X170.22Y-64.8
X98.22Y-100.8
X206.22Y-118.8
X80.22Y-118.8
X98.22Y-136.8
X260.22Y-82.8
X80.22Y-136.8
X80.22Y-82.8
X188.22Y-100.8
X224.22Y-100.8
X134.22Y-118.8
X134.22Y-136.8
X224.22Y-136.8
X260.22Y-136.8
X116.22Y-136.8
X116.22Y-82.8
X98.22Y-82.8
X206.22Y-82.8
X224.22Y-64.8
X116.22Y-100.8
X242.22Y-100.8
X152.22Y-118.8
T15
X99.5Y-39.0
X104.5Y-39.0
T16
X249.5Y-105.0
X260.5Y-105.0
X33.5Y-87.0
X44.5Y-87.0
X195.5Y-69.0
X206.5Y-69.0
X231.5Y-87.0
X242.5Y-87.0
X159.5Y-69.0
X170.5Y-69.0
X87.5Y-105.0
X98.5Y-105.0
X195.5Y-123.0
X206.5Y-123.0
X69.5Y-123.0
X80.5Y-123.0
X87.5Y-141.0
X98.5Y-141.0
X249.5Y-87.0
X260.5Y-87.0
X69.5Y-141.0
X80.5Y-141.0
X69.5Y-87.0
X80.5Y-87.0
X177.5Y-105.0
X188.5Y-105.0
X213.5Y-105.0
X224.5Y-105.0
X123.5Y-123.0
X134.5Y-123.0
X123.5Y-141.0
X134.5Y-141.0
X213.5Y-141.0
X224.5Y-141.0
X249.5Y-141.0
X260.5Y-141.0
X105.5Y-141.0
X116.5Y-141.0
X105.5Y-87.0
X116.5Y-87.0
X87.5Y-87.0
X98.5Y-87.0
X195.5Y-87.0
X206.5Y-87.0
X213.5Y-69.0
X224.5Y-69.0
X105.5Y-105.0
X116.5Y-105.0
X231.5Y-105.0
X242.5Y-105.0
X141.5Y-123.0
X152.5Y-123.0
X177.5Y-141.0
X188.5Y-141.0
X141.5Y-141.0
X152.5Y-141.0
X33.5Y-105.0
X44.5Y-105.0
X33.5Y-69.0
X44.5Y-69.0
X123.5Y-69.0
X134.5Y-69.0
X141.5Y-69.0
X152.5Y-69.0
X51.5Y-69.0
X62.5Y-69.0
X123.5Y-105.0
X134.5Y-105.0
X141.5Y-105.0
X152.5Y-105.0
X51.5Y-141.0
X62.5Y-141.0
X33.5Y-141.0
X44.5Y-141.0
X195.5Y-141.0
X206.5Y-141.0
X177.5Y-87.0
X188.5Y-87.0
X177.5Y-69.0
X188.5Y-69.0
X105.5Y-69.0
X116.5Y-69.0
X123.5Y-87.0
X134.5Y-87.0
X69.5Y-69.0
X80.5Y-69.0
X51.5Y-105.0
X62.5Y-105.0
X231.5Y-123.0
X242.5Y-123.0
X195.5Y-105.0
X206.5Y-105.0
X159.5Y-123.0
X170.5Y-123.0
X159.5Y-141.0
X170.5Y-141.0
X231.5Y-141.0
X242.5Y-141.0
X231.5Y-69.0
X242.5Y-69.0
X159.5Y-87.0
X170.5Y-87.0
X213.5Y-87.0
X224.5Y-87.0
X69.5Y-105.0
X80.5Y-105.0
X159.5Y-105.0
X170.5Y-105.0
X33.5Y-123.0
X44.5Y-123.0
X177.5Y-123.0
X188.5Y-123.0
X249.5Y-123.0
X260.5Y-123.0
X87.5Y-69.0
X98.5Y-69.0
X51.5Y-87.0
X62.5Y-87.0
X141.5Y-87.0
X152.5Y-87.0
X105.5Y-123.0
X116.5Y-123.0
X87.5Y-123.0
X98.5Y-123.0
X51.5Y-123.0
X62.5Y-123.0
X213.5Y-123.0
X224.5Y-123.0
T17
X261.0Y-57.0
X246.0Y-132.0
X210.0Y-114.0
X246.0Y-78.0
X174.0Y-33.0
X138.0Y-114.0
X174.0Y-132.0
X146.975Y-57.0
X210.0Y-132.0
X84.0Y-114.0
X33.0Y-57.0
X33.0Y-33.0
X48.0Y-78.0
X48.0Y-132.0
X156.0Y-114.0
X261.0Y-33.0
X120.0Y-33.0
X174.0Y-78.0
X120.0Y-132.0
X84.0Y-132.0
X210.0Y-78.0
X120.0Y-78.0
X84.0Y-78.0
T18
X93.0Y-69.0
X57.0Y-87.0
X147.0Y-87.0
X111.0Y-123.0
X93.0Y-123.0
X57.0Y-123.0
X219.0Y-123.0
X255.0Y-105.0
X39.0Y-87.0
X201.0Y-69.0
X237.0Y-87.0
X165.0Y-69.0
X93.0Y-105.0
X201.0Y-123.0
X75.0Y-123.0
X93.0Y-141.0
X255.0Y-87.0
X75.0Y-141.0
X75.0Y-87.0
X183.0Y-105.0
X219.0Y-105.0
X129.0Y-123.0
X129.0Y-141.0
X219.0Y-141.0
X255.0Y-141.0
X111.0Y-141.0
X111.0Y-87.0
X93.0Y-87.0
X201.0Y-87.0
X219.0Y-69.0
X111.0Y-105.0
X237.0Y-105.0
X147.0Y-123.0
X183.0Y-141.0
X147.0Y-141.0
X39.0Y-105.0
X39.0Y-69.0
X129.0Y-69.0
X147.0Y-69.0
X57.0Y-69.0
X129.0Y-105.0
X147.0Y-105.0
X57.0Y-141.0
X39.0Y-141.0
X201.0Y-141.0
X183.0Y-87.0
X183.0Y-69.0
X111.0Y-69.0
X129.0Y-87.0
X75.0Y-69.0
X57.0Y-105.0
X237.0Y-123.0
X201.0Y-105.0
X165.0Y-123.0
X165.0Y-141.0
X237.0Y-141.0
X237.0Y-69.0
X165.0Y-87.0
X219.0Y-87.0
X75.0Y-105.0
X165.0Y-105.0
X39.0Y-123.0
X183.0Y-123.0
X255.0Y-123.0
T2
G00X187.68Y-31.36
M15
G01X187.68Y-32.16
M16
G05
G00X187.68Y-35.38
M15
G01X187.68Y-36.48
M16
G05
G00X196.32Y-31.36
M15
G01X196.32Y-32.16
M16
G05
G00X196.32Y-35.38
M15
G01X196.32Y-36.48
M16
G05
T0
M30
